<svg width="1440" height="1440" xmlns="http://www.w3.org/2000/svg"><g stroke="#020256" fill="#020256"><path d="M993.785 737.926c-343.041-23.411-349.958 307.324-554.408 307.324-175.147 0-155.766-160.012-146.62-205.854 20.279-1.287 47.27-7.55 80.438-25.22 88.637-47.234 35.001-139.184 35.001-139.184-1.733 32.188-51.981 35.119-51.981 35.119-93.93 3.72-104.56 66.251-107.712 99.51-12.327-24.783-41.824-70.132-90.778-66.296-66.141 5.178-52.507 27.639-123.42-3.459 0 0-10.956 89.748 98.83 112.546 28.534 5.926 51.007 5.68 68.483 2.493-6.574 479.585 535.033 589.085 868.412 468.395 384-139 266.79-561.964-76.245-585.374z"/><path d="M976.93 709.908c10.766-19.188 86.99-151.911 226.5-121.302 308.23 67.639 253.71-276.849 10.73-223.633-190.36 41.7-247.636 333.665-252.288 359.901 0 0-.533 3.529 1.128 4.273 6.558 2.9 13.93-19.239 13.93-19.239z"/><path d="M966.406 542.142c13.427-48.064-55.363-441.303 210.704-382.397 134.58 29.796 99.51 208.019-37.92 212.056-129.04 3.785-139.556 123.077-159.948 169.245 0 0-2.608 7.641-7.722 7.239 0 0-6.722-.408-5.114-6.143z"/><path d="M950.399 725.045s42.793-789.717-442.995-620.829c0 0-224.463 88.436-83.825 285.485 55.103 77.196 181.781 77.07 275.864 62.733 0 0 80.473-14.88 134.512 39.925 54.051 54.804 94.728 219.369 102.082 231.555 8.278 13.754 14.362 1.131 14.362 1.131zm3.151 292.195c15.621 18.29 39.063 23.28 52.35 11.13 13.27-12.21 11.34-36.933-4.29-55.237-15.666-18.343-39.103-23.305-52.358-11.134-13.256 12.186-11.363 36.898 4.298 55.241zm245 218.55s-184.19 55.74-232.531-100.02c0 0-3.34-5.21.934-7.92 5.345-3.38 13.445.6 13.445.6 42.342 151.79 214.052 94.49 214.052 94.49s8.21 1.64 9.48 4.3c1.27 2.66-.12 7.98-5.38 8.55zM973.989 709.908c10.766-19.188 86.991-151.911 226.501-121.302 308.23 67.639 253.71-276.849 10.73-223.633-190.36 41.7-247.637 333.665-252.29 359.901 0 0-.532 3.529 1.129 4.273 6.558 2.9 13.93-19.239 13.93-19.239z"/><path d="M950.399 725.045s42.793-789.717-442.995-620.829c0 0-224.463 88.436-83.825 285.485 55.103 77.196 181.781 77.07 275.864 62.733 0 0 80.473-14.88 134.512 39.925 54.051 54.804 94.728 219.369 102.082 231.555 8.278 13.754 14.362 1.131 14.362 1.131z"/></g><ellipse ry="20.588" rx="11.764" cy="1095.294" cx="1024.706" stroke-width="5" stroke="#fff" fill="#fff"/><ellipse transform="rotate(-23.097 1182.06 1165.88)" ry="50" rx="125" cy="1165.882" cx="1182.059" stroke-width="5" stroke="#fff" fill="#fff"/><ellipse transform="rotate(-22.686 1157.88 1140.51)" ry="61.765" rx="153.317" cy="1140.507" cx="1157.878" stroke-width="5" stroke="#020256" fill="#020256"/></svg>